<svg xmlns="http://www.w3.org/2000/svg" width="25" height="24" fill="none"><path fill="#CEF240" d="M2.666 12c0-4.714 0-7.071 1.464-8.536C5.595 2 7.952 2 12.666 2c4.714 0 7.071 0 8.535 1.464C22.666 4.93 22.666 7.286 22.666 12c0 4.714 0 7.071-1.465 8.535C19.738 22 17.381 22 12.666 22c-4.714 0-7.071 0-8.536-1.465C2.666 19.072 2.666 16.714 2.666 12z" opacity=".5"/><path fill="#CEF240" d="M15.166 10.75a.75.75 0 0 1 0-1.5h2.5a.75.75 0 0 1 .75.75v2.5a.75.75 0 0 1-1.5 0v-.69l-2.013 2.013a1.75 1.75 0 0 1-2.474 0l-1.586-1.586a.25.25 0 0 0-.354 0L8.196 14.53a.75.75 0 0 1-1.06-1.06l2.293-2.293a1.75 1.75 0 0 1 2.474 0l1.586 1.586a.25.25 0 0 0 .354 0l2.012-2.013h-.689z"/></svg>