<svg xmlns="http://www.w3.org/2000/svg" width="20" height="20" fill="none"><path fill="#CEF240" d="M17.936 10H2.063a.397.397 0 0 1-.397-.397 7.936 7.936 0 0 1 7.937-7.936h.793a7.937 7.937 0 0 1 7.937 7.936c0 .22-.178.397-.397.397z" opacity=".5"/><path fill="#CEF240" fill-rule="evenodd" d="M9.374 16.667V10h1.25v6.667a2.292 2.292 0 0 1-4.583 0v-.834a.625.625 0 0 1 1.25 0v.834a1.042 1.042 0 0 0 2.083 0z" clip-rule="evenodd"/><path fill="#CEF240" d="M6.534 10c.119-1.129.397-3.11.986-4.81.301-.867.669-1.617 1.104-2.139.428-.513.88-.76 1.377-.76.498 0 .949.247 1.377.76.435.522.802 1.272 1.103 2.14.59 1.698.868 3.68.987 4.809h1.256l-.006-.064c-.118-1.143-.407-3.284-1.056-5.155-.323-.933-.75-1.843-1.325-2.53a4.162 4.162 0 0 0-.422-.44 7.978 7.978 0 0 0-1.517-.144h-.794c-.519 0-1.026.05-1.517.145a4.086 4.086 0 0 0-.423.439c-.573.687-1.001 1.597-1.325 2.53-.648 1.87-.937 4.012-1.055 5.155L5.277 10h1.257z"/></svg>