<svg xmlns="http://www.w3.org/2000/svg" width="20" height="20" fill="none"><path fill="#CEF240" d="M1.666 5.417c0-1.768 0-2.652.55-3.201.548-.55 1.432-.55 3.2-.55 1.768 0 2.652 0 3.2.55.55.549.55 1.433.55 3.2 0 1.768 0 2.652-.55 3.202-.548.549-1.432.549-3.2.549-1.768 0-2.652 0-3.2-.55-.55-.549-.55-1.433-.55-3.2zm9.168 9.166c0-1.768 0-2.651.55-3.2.548-.55 1.432-.55 3.2-.55 1.768 0 2.652 0 3.2.55.55.549.55 1.433.55 3.2 0 1.768 0 2.652-.55 3.201-.548.55-1.432.55-3.2.55-1.768 0-2.652 0-3.2-.55-.55-.549-.55-1.433-.55-3.2z" opacity=".5"/><path fill="#CEF240" d="M1.666 14.583c0-1.768 0-2.651.55-3.2.548-.55 1.432-.55 3.2-.55 1.768 0 2.652 0 3.2.55.55.549.55 1.433.55 3.2 0 1.768 0 2.652-.55 3.201-.548.55-1.432.55-3.2.55-1.768 0-2.652 0-3.2-.55-.55-.549-.55-1.433-.55-3.2zm9.168-9.166c0-1.768 0-2.652.55-3.201.548-.55 1.432-.55 3.2-.55 1.768 0 2.652 0 3.2.55.55.549.55 1.433.55 3.2 0 1.768 0 2.652-.55 3.202-.548.549-1.432.549-3.2.549-1.768 0-2.652 0-3.2-.55-.55-.549-.55-1.433-.55-3.2z"/></svg>