<?xml version="1.0" standalone="no"?>
<!DOCTYPE svg PUBLIC "-//W3C//DTD SVG 20010904//EN"
 "http://www.w3.org/TR/2001/REC-SVG-20010904/DTD/svg10.dtd">
<svg version="1.0" xmlns="http://www.w3.org/2000/svg"
 width="300.000000pt" height="300.000000pt" viewBox="0 0 300.000000 300.000000"
 preserveAspectRatio="xMidYMid meet">
<metadata>
Created by potrace 1.10, written by Peter Selinger 2001-2011
</metadata>
<g transform="translate(0.000000,300.000000) scale(0.100000,-0.100000)"
fill="#000000" stroke="none">
<path d="M1255 2944 c-382 -71 -701 -267 -930 -572 -190 -253 -285 -544 -285
-872 0 -328 95 -619 285 -872 144 -191 312 -330 530 -438 150 -74 256 -109
416 -136 135 -22 414 -15 540 14 575 135 999 564 1125 1142 15 68 19 127 19
290 0 163 -4 222 -19 290 -127 579 -548 1006 -1125 1142 -117 27 -438 34 -556
12z m540 -52 c543 -117 954 -519 1092 -1067 26 -103 28 -123 28 -325 0 -200
-2 -222 -27 -320 -34 -134 -64 -215 -128 -338 -203 -397 -595 -677 -1045 -749
-145 -23 -393 -14 -535 20 -567 135 -985 579 -1085 1156 -20 110 -19 353 0
467 89 518 455 946 952 1112 79 27 175 49 288 66 74 11 372 -3 460 -22z"/>
<path d="M912 2287 c-21 -22 -22 -32 -22 -216 0 -190 0 -192 25 -216 l24 -25
221 0 c148 0 220 -3 220 -11 0 -5 -118 -228 -261 -495 -290 -536 -298 -556
-246 -608 l26 -26 605 0 605 0 20 26 c20 25 21 40 21 211 l0 185 -29 29 -29
29 -246 0 c-203 0 -246 2 -246 14 0 8 116 227 257 487 236 436 257 479 261
532 4 50 1 61 -19 83 l-22 24 -572 0 -572 0 -21 -23z m1168 -68 c0 -48 -17
-83 -280 -569 -154 -284 -280 -519 -280 -521 0 -2 133 -3 295 -1 l295 3 0
-200 0 -201 -610 0 -610 0 0 44 c0 39 34 108 285 571 157 290 285 528 285 529
0 0 -119 0 -265 -2 l-265 -3 0 200 0 201 575 0 575 0 0 -51z"/>
</g>
</svg>
